<svg width="131" height="82" viewBox="0 0 131 82" fill="none" xmlns="http://www.w3.org/2000/svg">
<path d="M45.0379 0.575C41.7379 4.275 38.4379 7.975 35.1379 11.575L25.1379 22.575L15.0379 33.375L4.83795 44.275V40.175C8.23795 43.375 11.7379 46.375 15.1379 49.575C18.5379 52.675 21.7379 55.975 24.9379 59.475C28.0379 62.875 31.1379 66.375 34.0379 69.975C36.9379 73.575 39.8379 77.275 42.3379 81.275C42.4379 81.475 42.4379 81.675 42.2379 81.775C42.1379 81.875 41.9379 81.875 41.8379 81.775C37.8379 79.175 34.2379 76.375 30.5379 73.475C26.9379 70.575 23.4379 67.475 20.0379 64.375C16.6379 61.275 13.3379 57.975 10.1379 54.575C7.03795 51.075 3.93795 47.575 0.837947 44.275L0.737947 44.175C-0.262053 43.075 -0.262053 41.275 0.837947 40.275L11.6379 30.175L22.5379 19.975L33.5379 9.975C37.1379 6.675 40.8379 3.275 44.5379 0.075C44.6379 -0.025 44.9379 -0.025 45.0379 0.075C45.1379 0.275 45.1379 0.475 45.0379 0.575Z" fill="#1D1D1B"/>
<path d="M2.93777 41.8747C13.8378 44.6747 25.0378 46.3747 36.2378 47.1747C41.8378 47.5747 47.4378 47.7747 53.0378 47.5747C58.6378 47.4747 64.1378 47.0747 69.6378 46.2747C75.1378 45.4747 80.5378 44.1747 85.7378 42.6747L89.6378 41.4747C90.9378 41.0747 92.2378 40.5747 93.5378 40.1747C94.8378 39.7747 96.1378 39.2747 97.3378 38.7747C98.6378 38.2747 99.9378 37.8747 101.138 37.3747L104.938 35.8747L108.638 34.1747C109.938 33.6747 111.038 32.9747 112.338 32.3747L114.138 31.3747L115.038 30.8747L115.938 30.3747C117.138 29.6747 118.338 28.9747 119.538 28.2747C120.738 27.5747 121.838 26.7747 123.038 25.9747L124.838 24.8747C125.438 24.4747 125.938 24.0747 126.538 23.6747C127.738 22.8747 128.838 22.0747 130.038 21.2747C130.238 21.1747 130.438 21.1747 130.638 21.3747C130.738 21.4747 130.738 21.6747 130.638 21.7747C129.838 22.9747 129.038 24.1747 128.138 25.3747C127.738 25.9747 127.238 26.5747 126.838 27.1747L125.438 28.7747C124.438 29.8747 123.538 30.9747 122.438 31.9747C121.338 32.9747 120.338 33.9747 119.238 34.9747C118.138 35.9747 116.938 36.7747 115.738 37.7747C114.538 38.6747 113.338 39.5747 112.138 40.3747C110.938 41.1747 109.638 41.9747 108.338 42.6747L104.438 44.7747C99.1378 47.3747 93.5378 49.3747 87.7378 50.4747C81.9378 51.6747 76.1378 52.2747 70.3378 52.7747C64.5378 53.1747 58.7378 53.2747 53.0378 52.9747C47.2378 52.6747 41.5378 52.0747 35.8378 51.2747C30.1378 50.3747 24.5378 49.2747 19.0378 47.8747C13.5378 46.4747 8.03777 44.8747 2.73777 42.7747C2.53777 42.6747 2.43777 42.4747 2.53777 42.2747C2.53777 41.8747 2.73777 41.7747 2.93777 41.8747Z" fill="#1D1D1B"/>
</svg>
