<svg width="109" height="56" viewBox="0 0 109 56" fill="none" xmlns="http://www.w3.org/2000/svg">
<path d="M107.9 46.0063C106.9 42.5063 106 38.9063 105.1 35.4063L102.4 24.8063L99.8 14.2063L97.2 3.40632L100.3 5.70632C95.7 6.30632 91.1 7.00632 86.5 7.60632C81.9 8.20632 77.3 8.60632 72.7 8.80632C68.1 9.00632 63.4 9.10632 58.8 9.00632C54.1 8.90632 49.5 8.70632 44.8 8.20632C44.6 8.20632 44.5 8.00632 44.5 7.80632C44.5 7.70632 44.6 7.50632 44.7 7.50632C49.2 6.10632 53.8 5.10632 58.3 4.20632C62.9 3.30632 67.4 2.60632 72 1.90632C76.6 1.30632 81.2 0.806324 85.8 0.606324C90.4 0.406324 95.1 0.306324 99.7 0.00632429H99.9C101.3 -0.0936757 102.5 1.00632 102.7 2.30632L104.3 13.1063L105.8 24.0063L107.2 34.9063C107.7 38.5063 108.1 42.2063 108.5 45.8063C108.5 46.0063 108.4 46.2063 108.2 46.2063C108.1 46.2063 108 46.1063 107.9 46.0063Z" fill="#1D1D1B"/>
<path d="M97.9 1.00668C97.8 6.20668 96.6 11.3067 94.7 16.1067C92.8 21.0067 90.2 25.6067 86.9 29.7067C83.6 33.8067 79.8 37.5067 75.5 40.7067C71.2 43.8067 66.5 46.4067 61.7 48.5067L58 50.0067C56.8 50.5067 55.5 50.9067 54.3 51.3067C53 51.7067 51.8 52.2067 50.5 52.5067L46.7 53.6067C44.1 54.3067 41.5 54.7067 38.9 55.1067C36.3 55.4067 33.7 55.7067 31.1 55.7067C28.5 55.7067 25.9 55.8067 23.3 55.6067C22 55.5067 20.7 55.4067 19.4 55.3067C18.1 55.2067 16.8 55.1067 15.5 54.9067C12.9 54.5067 10.4 54.1067 7.8 53.6067C5.3 53.0067 2.8 52.4067 0.3 51.6067C0.1 51.5067 0 51.3067 0 51.1067C0 50.9067 0.2 50.8067 0.3 50.8067C2.9 50.4067 5.5 50.2067 8 50.0067C10.5 49.8067 13.1 49.5067 15.6 49.3067C18.1 49.1067 20.6 48.8067 23.1 48.6067C24.3 48.5067 25.6 48.4067 26.8 48.2067L30.5 47.8067C33 47.5067 35.4 47.1067 37.8 46.9067C39 46.7067 40.2 46.6067 41.4 46.4067C42.6 46.2067 43.8 46.1067 45 45.9067L48.6 45.3067C49.8 45.1067 51 44.8067 52.2 44.5067C54.6 44.0067 56.9 43.2067 59.3 42.5067C63.9 40.9067 68.3 38.8067 72.5 36.3067C76.7 33.8067 80.5 30.7067 83.9 27.1067C87.3 23.6067 90.2 19.5067 92.4 15.1067C93.5 12.9067 94.5 10.6067 95.3 8.20668C96.1 5.80668 96.8 3.40668 97.1 0.906677C97.1 0.706677 97.3 0.506677 97.5 0.606677C97.8 0.606677 97.9 0.806677 97.9 1.00668Z" fill="#1D1D1B"/>
</svg>
