{"asset":{"version":"2.0","generator":"VECTARY"},"nodes":[{"translation":[0,-0.005,-8.881784197001253e-19],"scale":[0.004,0.004,0.00005],"rotation":[-0.7071067811865475,0,0,0.7071067811865476],"name":"Box - baked","mesh":0},{"translation":[0.03,7.105427357601002e-18,-0.04],"scale":[0.001,0.001,0.001],"rotation":[-0.7071067811865475,0,0,0.7071067811865476],"name":"Half-sphere","children":[2,3]},{"translation":[1.7763568394002505e-15,0,0],"scale":[1,1,1],"rotation":[0,0,0,1],"name":"Big half-sphere","mesh":1},{"translation":[0,7.105427357601002e-15,21.411219243891523],"scale":[1,1,1],"rotation":[0,0,0,1],"name":"Small half-sphere","mesh":2}],"materials":[{"pbrMetallicRoughness":{"baseColorFactor":[0.25084023643640047,0.7518950805830509,0.2195197180748679,1],"metallicFactor":0,"roughnessFactor":0.6},"name":"Box material","emissiveFactor":[0,0,0],"alphaMode":"OPAQUE","doubleSided":false},{"pbrMetallicRoughness":{"baseColorFactor":[1,1,1,1],"metallicFactor":0,"roughnessFactor":1},"name":"Pure white matte","emissiveFactor":[0,0,0],"alphaMode":"OPAQUE","doubleSided":false},{"pbrMetallicRoughness":{"baseColorFactor":[1,0.6661169687758508,0.6455552724449345,1],"metallicFactor":0,"roughnessFactor":0},"name":"Pink Rounded Shapes","emissiveFactor":[0,0,0],"alphaMode":"OPAQUE","doubleSided":false}],"meshes":[{"primitives":[{"mode":4,"attributes":{"POSITION":1,"NORMAL":2},"material":0,"indices":0}]},{"primitives":[{"mode":4,"attributes":{"POSITION":4,"NORMAL":5},"material":1,"indices":3}]},{"primitives":[{"mode":4,"attributes":{"POSITION":7,"NORMAL":8},"material":2,"indices":6}]}],"accessors":[{"bufferView":0,"byteOffset":0,"componentType":5125,"count":144,"type":"SCALAR"},{"bufferView":1,"byteOffset":0,"componentType":5126,"count":54,"max":[50,50,100],"min":[-50,-50,0],"type":"VEC3"},{"bufferView":2,"byteOffset":0,"componentType":5126,"count":54,"type":"VEC3"},{"bufferView":3,"byteOffset":0,"componentType":5125,"count":5376,"type":"SCALAR"},{"bufferView":4,"byteOffset":0,"componentType":5126,"count":1046,"max":[40.38311767578125,40.38311767578125,39.79819107055664],"min":[-40.38311767578125,-40.38311767578125,0],"type":"VEC3"},{"bufferView":5,"byteOffset":0,"componentType":5126,"count":1046,"type":"VEC3"},{"bufferView":6,"byteOffset":0,"componentType":5125,"count":5568,"type":"SCALAR"},{"bufferView":7,"byteOffset":0,"componentType":5126,"count":1056,"max":[18.668163299560547,18.668163299560547,18.49919319152832],"min":[-18.668163299560547,-18.668163299560547,-8.118505867571457e-16],"type":"VEC3"},{"bufferView":8,"byteOffset":0,"componentType":5126,"count":1056,"type":"VEC3"}],"bufferViews":[{"buffer":0,"byteOffset":0,"byteLength":576,"target":34963},{"buffer":0,"byteOffset":576,"byteLength":648,"target":34962},{"buffer":0,"byteOffset":1224,"byteLength":648,"target":34962},{"buffer":0,"byteOffset":1872,"byteLength":21504,"target":34963},{"buffer":0,"byteOffset":23376,"byteLength":12552,"target":34962},{"buffer":0,"byteOffset":35928,"byteLength":12552,"target":34962},{"buffer":0,"byteOffset":48480,"byteLength":22272,"target":34963},{"buffer":0,"byteOffset":70752,"byteLength":12672,"target":34962},{"buffer":0,"byteOffset":83424,"byteLength":12672,"target":34962}],"scene":0,"scenes":[{"nodes":[0,1],"name":"Test"}],"extensionsUsed":["KHR_texture_transform"],"buffers":[{"byteLength":96096,"uri":"Test.bin"}]}