{"asset":{"version":"2.0","generator":"VECTARY"},"nodes":[{"translation":[0,0,0],"scale":[0.001,0.001,0.001],"rotation":[-0.7071067811865475,0,0,0.7071067811865476],"name":"one111","children":[1,2,3,4,5,6,7,8,9,10,11,12,13,14]},{"translation":[-0.3757685422897339,1.7836929559707633,8.822137832641602],"scale":[1,1,1],"rotation":[0.7071067811865475,0,0,0.7071067811865476],"name":"SHOES_1_Cube.053_shoes_white.001","mesh":0},{"translation":[-0.3757685422897339,1.7836929559707633,8.822137832641602],"scale":[1,1,1],"rotation":[0.7071067811865475,0,0,0.7071067811865476],"name":"SHOES_1_Cube.053_Material","mesh":1},{"translation":[-0.3757685422897339,1.7836929559707633,8.822137832641602],"scale":[1,1,1],"rotation":[0.7071067811865475,0,0,0.7071067811865476],"name":"LEGS_2_Cube.052_Male_Suit","mesh":2},{"translation":[-0.3757685422897339,1.7836929559707633,8.822137832641602],"scale":[1,1,1],"rotation":[0.7071067811865475,0,0,0.7071067811865476],"name":"LEGS_2_Cube.052_skin.001","mesh":3},{"translation":[-0.3757685422897339,1.7836929559707633,8.822137832641602],"scale":[1,1,1],"rotation":[0.7071067811865475,0,0,0.7071067811865476],"name":"23_iPad_(pose_23)_Cube.025_tie","mesh":4},{"translation":[-0.3757685422897339,1.7836929559707633,8.822137832641602],"scale":[1,1,1],"rotation":[0.7071067811865475,0,0,0.7071067811865476],"name":"body_Cube.017_skin_male","mesh":5},{"translation":[-0.3757685422897339,1.7836929559707633,8.822137832641602],"scale":[1,1,1],"rotation":[0.7071067811865475,0,0,0.7071067811865476],"name":"eye_Cube.006_eyes","mesh":6},{"translation":[-0.3757685422897339,1.7836929559707633,8.822137832641602],"scale":[1,1,1],"rotation":[0.7071067811865475,0,0,0.7071067811865476],"name":"Eyebrow.004_Cube.002_hair_type_3.001","mesh":7},{"translation":[-0.3757685422897339,1.7836929559707633,8.822137832641602],"scale":[1,1,1],"rotation":[0.7071067811865475,0,0,0.7071067811865476],"name":"Hair_6a_Cube.007_hair_type_3","mesh":8},{"translation":[-0.3757685422897339,1.7836929559707633,8.822137832641602],"scale":[1,1,1],"rotation":[0.7071067811865475,0,0,0.7071067811865476],"name":"Hair_6b_Cube.011_hair_type_3","mesh":9},{"translation":[-0.3757685422897339,1.7836929559707633,8.822137832641602],"scale":[1,1,1],"rotation":[0.7071067811865475,0,0,0.7071067811865476],"name":"Jumper_Cube.010_Jumper","mesh":10},{"translation":[-0.3757685422897339,1.7836929559707633,8.822137832641602],"scale":[1,1,1],"rotation":[0.7071067811865475,0,0,0.7071067811865476],"name":"Jumper_Cube.010_Shirt_white","mesh":11},{"translation":[-0.3757685422897339,1.7836929559707633,8.822137832641602],"scale":[1,1,1],"rotation":[0.7071067811865475,0,0,0.7071067811865476],"name":"nose_Cube.004_skin_male","mesh":12},{"translation":[-0.3757685422897339,1.7836929559707633,8.822137832641602],"scale":[1,1,1],"rotation":[0.7071067811865475,0,0,0.7071067811865476],"name":"Teeth_Plane.006_teeth","mesh":13},{"translation":[-0.004669071132712359,0.01919503958680612,0.022055286114509697],"scale":[1,1,1],"rotation":[-0.053971360493172554,0.009948938983239008,0.0005377683102473219,0.9984927749687869],"name":"Camera","camera":0}],"materials":[{"pbrMetallicRoughness":{"baseColorFactor":[0.7969165429079781,0.8512516451845149,0.8751375823652049,1],"metallicFactor":0,"roughnessFactor":1},"name":"Sharp Shapes - Sky Blue","emissiveFactor":[0,0,0],"alphaMode":"OPAQUE","doubleSided":false},{"pbrMetallicRoughness":{"baseColorFactor":[1,1,1,1],"baseColorTexture":{"index":0,"extensions":{"KHR_texture_transform":{"offset":[0,0],"scale":[1,1]}},"texCoord":0},"metallicFactor":0,"roughnessFactor":1},"name":"Blue to Blue","emissiveFactor":[0,0,0],"alphaMode":"OPAQUE","doubleSided":false},{"pbrMetallicRoughness":{"baseColorFactor":[0.9573695761995268,0.9573695761995268,0.9573695761995268,1],"metallicFactor":0,"roughnessFactor":0.9},"name":"Pearl","emissiveFactor":[0,0,0],"alphaMode":"OPAQUE","doubleSided":false},{"pbrMetallicRoughness":{"baseColorFactor":[1,0.6592239918133873,0.48776520187781053,1],"metallicFactor":0,"roughnessFactor":1},"name":"Sharp Shapes - Peach Color 1","emissiveFactor":[0,0,0],"alphaMode":"OPAQUE","doubleSided":false},{"pbrMetallicRoughness":{"baseColorFactor":[0.00017512397750302672,0.00017512397750302672,0.00017512397750302672,1],"metallicRoughnessTexture":{"index":2,"extensions":{"KHR_texture_transform":{"offset":[0,0],"scale":[1,1]}},"texCoord":0},"metallicFactor":0,"roughnessFactor":1},"name":"Synthetic Rubber","normalTexture":{"index":1,"scale":1,"extensions":{"KHR_texture_transform":{"offset":[0,0],"scale":[1,1]}},"texCoord":0},"emissiveFactor":[0,0,0],"occlusionTexture":{"index":3,"strength":1,"extensions":{"KHR_texture_transform":{"offset":[0,0],"scale":[1,1]}},"texCoord":1},"alphaMode":"OPAQUE","doubleSided":false},{"pbrMetallicRoughness":{"baseColorFactor":[1,1,1,1],"baseColorTexture":{"index":4,"extensions":{"KHR_texture_transform":{"offset":[0,0],"scale":[1,1]}},"texCoord":0},"metallicRoughnessTexture":{"index":6,"extensions":{"KHR_texture_transform":{"offset":[0,0],"scale":[1,1]}},"texCoord":0},"metallicFactor":0,"roughnessFactor":1},"name":"Mahogany Wood 2","normalTexture":{"index":5,"scale":1,"extensions":{"KHR_texture_transform":{"offset":[0,0],"scale":[1,1]}},"texCoord":0},"emissiveFactor":[0,0,0],"alphaMode":"OPAQUE","doubleSided":false},{"pbrMetallicRoughness":{"baseColorFactor":[1,1,1,1],"baseColorTexture":{"index":4,"extensions":{"KHR_texture_transform":{"offset":[0,0],"scale":[1,1]}},"texCoord":0},"metallicRoughnessTexture":{"index":6,"extensions":{"KHR_texture_transform":{"offset":[0,0],"scale":[1,1]}},"texCoord":0},"metallicFactor":0,"roughnessFactor":1},"name":"Mahogany Wood","normalTexture":{"index":5,"scale":1,"extensions":{"KHR_texture_transform":{"offset":[0,0],"scale":[1,1]}},"texCoord":0},"emissiveFactor":[0,0,0],"alphaMode":"OPAQUE","doubleSided":false},{"pbrMetallicRoughness":{"baseColorFactor":[1,1,1,1],"baseColorTexture":{"index":4,"extensions":{"KHR_texture_transform":{"offset":[0,0],"scale":[1,1]}},"texCoord":0},"metallicRoughnessTexture":{"index":6,"extensions":{"KHR_texture_transform":{"offset":[0,0],"scale":[1,1]}},"texCoord":0},"metallicFactor":0,"roughnessFactor":1},"name":"Mahogany Wood 1","normalTexture":{"index":5,"scale":1,"extensions":{"KHR_texture_transform":{"offset":[0,0],"scale":[1,1]}},"texCoord":0},"emissiveFactor":[0,0,0],"alphaMode":"OPAQUE","doubleSided":false},{"pbrMetallicRoughness":{"baseColorFactor":[0,0,0,1],"metallicRoughnessTexture":{"index":8,"extensions":{"KHR_texture_transform":{"offset":[0,0],"scale":[1,1]}},"texCoord":0},"metallicFactor":0,"roughnessFactor":1},"name":"Reinforced Rubber","normalTexture":{"index":7,"scale":1,"extensions":{"KHR_texture_transform":{"offset":[0,0],"scale":[1,1]}},"texCoord":0},"emissiveFactor":[0,0,0],"occlusionTexture":{"index":9,"strength":1,"extensions":{"KHR_texture_transform":{"offset":[0,0],"scale":[1,1]}},"texCoord":1},"alphaMode":"OPAQUE","doubleSided":false},{"pbrMetallicRoughness":{"baseColorFactor":[1,0.6592239918133873,0.48776520187781053,1],"metallicFactor":0,"roughnessFactor":1},"name":"Sharp Shapes - Peach Color","emissiveFactor":[0,0,0],"alphaMode":"OPAQUE","doubleSided":false}],"meshes":[{"primitives":[{"mode":4,"attributes":{"POSITION":1,"NORMAL":2},"material":0,"indices":0}]},{"primitives":[{"mode":4,"attributes":{"POSITION":4,"NORMAL":5},"material":0,"indices":3}]},{"primitives":[{"mode":4,"attributes":{"POSITION":7,"NORMAL":8,"TEXCOORD_0":9},"material":1,"indices":6}]},{"primitives":[{"mode":4,"attributes":{"POSITION":11,"NORMAL":12},"material":0,"indices":10}]},{"primitives":[{"mode":4,"attributes":{"POSITION":14,"NORMAL":15},"material":2,"indices":13}]},{"primitives":[{"mode":4,"attributes":{"POSITION":17,"NORMAL":18},"material":3,"indices":16}]},{"primitives":[{"mode":4,"attributes":{"POSITION":20,"NORMAL":21,"TEXCOORD_0":22,"TEXCOORD_1":23},"material":4,"indices":19}]},{"primitives":[{"mode":4,"attributes":{"POSITION":25,"NORMAL":26,"TEXCOORD_0":27},"material":5,"indices":24}]},{"primitives":[{"mode":4,"attributes":{"POSITION":29,"NORMAL":30,"TEXCOORD_0":31},"material":6,"indices":28}]},{"primitives":[{"mode":4,"attributes":{"POSITION":33,"NORMAL":34,"TEXCOORD_0":35},"material":7,"indices":32}]},{"primitives":[{"mode":4,"attributes":{"POSITION":37,"NORMAL":38,"TEXCOORD_0":39,"TEXCOORD_1":40},"material":8,"indices":36}]},{"primitives":[{"mode":4,"attributes":{"POSITION":42,"NORMAL":43},"material":0,"indices":41}]},{"primitives":[{"mode":4,"attributes":{"POSITION":45,"NORMAL":46},"material":9,"indices":44}]},{"primitives":[{"mode":4,"attributes":{"POSITION":48,"NORMAL":49},"material":0,"indices":47}]}],"accessors":[{"bufferView":0,"byteOffset":0,"componentType":5125,"count":20688,"type":"SCALAR"},{"bufferView":1,"byteOffset":0,"componentType":5126,"count":3528,"max":[0.8078820109367371,-5.536324977874756,2.582953929901123],"min":[-2.6285650730133057,-8.802597045898438,-0.8791030049324036],"type":"VEC3"},{"bufferView":2,"byteOffset":0,"componentType":5126,"count":3528,"type":"VEC3"},{"bufferView":3,"byteOffset":0,"componentType":5125,"count":2400,"type":"SCALAR"},{"bufferView":4,"byteOffset":0,"componentType":5126,"count":446,"max":[0.8078820109367371,-5.7141947746276855,2.582953929901123],"min":[-2.706655979156494,-8.822137832641602,-0.8791030049324036],"type":"VEC3"},{"bufferView":5,"byteOffset":0,"componentType":5126,"count":446,"type":"VEC3"},{"bufferView":6,"byteOffset":0,"componentType":5125,"count":7680,"type":"SCALAR"},{"bufferView":7,"byteOffset":0,"componentType":5126,"count":1635,"max":[1.724539041519165,1.2483869791030884,2.2937099933624268],"min":[-2.0827770233154297,-7.731327056884766,-1.1612000465393066],"type":"VEC3"},{"bufferView":8,"byteOffset":0,"componentType":5126,"count":1635,"type":"VEC3"},{"bufferView":9,"byteOffset":0,"componentType":5126,"count":1635,"type":"VEC2"},{"bufferView":10,"byteOffset":0,"componentType":5125,"count":2304,"type":"SCALAR"},{"bufferView":11,"byteOffset":0,"componentType":5126,"count":402,"max":[0.5861449837684631,-5.454520225524902,2.0410780906677246],"min":[-2.4189090728759766,-8.423855781555176,-0.6946550011634827],"type":"VEC3"},{"bufferView":12,"byteOffset":0,"componentType":5126,"count":402,"type":"VEC3"},{"bufferView":13,"byteOffset":0,"componentType":5125,"count":564,"type":"SCALAR"},{"bufferView":14,"byteOffset":0,"componentType":5126,"count":96,"max":[1.4984530210494995,6.815431118011475,6.8255839347839355],"min":[-2.082772970199585,3.9656500816345215,2.832550048828125],"type":"VEC3"},{"bufferView":15,"byteOffset":0,"componentType":5126,"count":96,"type":"VEC3"},{"bufferView":16,"byteOffset":0,"componentType":5125,"count":23280,"type":"SCALAR"},{"bufferView":17,"byteOffset":0,"componentType":5126,"count":3921,"max":[2.8966739177703857,11.077398300170898,5.6682658195495605],"min":[-2.7870359420776367,0.6250590085983276,-3.2581980228424072],"type":"VEC3"},{"bufferView":18,"byteOffset":0,"componentType":5126,"count":3921,"type":"VEC3"},{"bufferView":19,"byteOffset":0,"componentType":5125,"count":1536,"type":"SCALAR"},{"bufferView":20,"byteOffset":0,"componentType":5126,"count":318,"max":[1.1188700199127197,8.892966270446777,2.514641046524048],"min":[-0.774649977684021,8.468603134155273,2.1422979831695557],"type":"VEC3"},{"bufferView":21,"byteOffset":0,"componentType":5126,"count":318,"type":"VEC3"},{"bufferView":22,"byteOffset":0,"componentType":5126,"count":318,"type":"VEC2"},{"bufferView":23,"byteOffset":0,"componentType":5126,"count":318,"type":"VEC2"},{"bufferView":24,"byteOffset":0,"componentType":5125,"count":672,"type":"SCALAR"},{"bufferView":25,"byteOffset":0,"componentType":5126,"count":136,"max":[1.3866159915924072,9.628389358520508,2.5325610637664795],"min":[-1.1149640083312988,9.217480659484863,1.8725780248641968],"type":"VEC3"},{"bufferView":26,"byteOffset":0,"componentType":5126,"count":136,"type":"VEC3"},{"bufferView":27,"byteOffset":0,"componentType":5126,"count":136,"type":"VEC2"},{"bufferView":28,"byteOffset":0,"componentType":5125,"count":65664,"type":"SCALAR"},{"bufferView":29,"byteOffset":0,"componentType":5126,"count":10952,"max":[2.874314069747925,11.972524642944336,2.507045030593872],"min":[-2.0134990215301514,9.573953628540039,-2.3727800846099854],"type":"VEC3"},{"bufferView":30,"byteOffset":0,"componentType":5126,"count":10952,"type":"VEC3"},{"bufferView":31,"byteOffset":0,"componentType":5126,"count":10952,"type":"VEC2"},{"bufferView":32,"byteOffset":0,"componentType":5125,"count":41472,"type":"SCALAR"},{"bufferView":33,"byteOffset":0,"componentType":5126,"count":7073,"max":[2.3156049251556396,10.290849685668945,1.4598850011825562],"min":[-2.4680919647216797,6.790901184082031,-2.514803886413574],"type":"VEC3"},{"bufferView":34,"byteOffset":0,"componentType":5126,"count":7073,"type":"VEC3"},{"bufferView":35,"byteOffset":0,"componentType":5126,"count":7073,"type":"VEC2"},{"bufferView":36,"byteOffset":0,"componentType":5125,"count":13488,"type":"SCALAR"},{"bufferView":37,"byteOffset":0,"componentType":5126,"count":2606,"max":[3.5385730266571045,5.602921962738037,3.450356960296631],"min":[-2.59696888923645,-0.04777900129556656,-2.0106029510498047],"type":"VEC3"},{"bufferView":38,"byteOffset":0,"componentType":5126,"count":2606,"type":"VEC3"},{"bufferView":39,"byteOffset":0,"componentType":5126,"count":2606,"type":"VEC2"},{"bufferView":40,"byteOffset":0,"componentType":5126,"count":2606,"type":"VEC2"},{"bufferView":41,"byteOffset":0,"componentType":5125,"count":5136,"type":"SCALAR"},{"bufferView":42,"byteOffset":0,"componentType":5126,"count":858,"max":[2.97585391998291,5.98275899887085,3.8844261169433594],"min":[-2.335010051727295,1.553022027015686,-1.869042992591858],"type":"VEC3"},{"bufferView":43,"byteOffset":0,"componentType":5126,"count":858,"type":"VEC3"},{"bufferView":44,"byteOffset":0,"componentType":5125,"count":576,"type":"SCALAR"},{"bufferView":45,"byteOffset":0,"componentType":5126,"count":98,"max":[0.46977001428604126,8.517919540405273,2.8582239151000977],"min":[-0.07611899822950363,7.870046138763428,2.243685007095337],"type":"VEC3"},{"bufferView":46,"byteOffset":0,"componentType":5126,"count":98,"type":"VEC3"},{"bufferView":47,"byteOffset":0,"componentType":5125,"count":1632,"type":"SCALAR"},{"bufferView":48,"byteOffset":0,"componentType":5126,"count":274,"max":[0.8934850096702576,7.648736000061035,2.206228017807007],"min":[-0.6814320087432861,6.868954181671143,1.3521289825439453],"type":"VEC3"},{"bufferView":49,"byteOffset":0,"componentType":5126,"count":274,"type":"VEC3"}],"bufferViews":[{"buffer":0,"byteOffset":0,"byteLength":82752,"target":34963},{"buffer":0,"byteOffset":82752,"byteLength":42336,"target":34962},{"buffer":0,"byteOffset":125088,"byteLength":42336,"target":34962},{"buffer":0,"byteOffset":167424,"byteLength":9600,"target":34963},{"buffer":0,"byteOffset":177024,"byteLength":5352,"target":34962},{"buffer":0,"byteOffset":182376,"byteLength":5352,"target":34962},{"buffer":0,"byteOffset":187728,"byteLength":30720,"target":34963},{"buffer":0,"byteOffset":218448,"byteLength":19620,"target":34962},{"buffer":0,"byteOffset":238068,"byteLength":19620,"target":34962},{"buffer":0,"byteOffset":257688,"byteLength":13080,"target":34962},{"buffer":0,"byteOffset":270768,"byteLength":9216,"target":34963},{"buffer":0,"byteOffset":279984,"byteLength":4824,"target":34962},{"buffer":0,"byteOffset":284808,"byteLength":4824,"target":34962},{"buffer":0,"byteOffset":289632,"byteLength":2256,"target":34963},{"buffer":0,"byteOffset":291888,"byteLength":1152,"target":34962},{"buffer":0,"byteOffset":293040,"byteLength":1152,"target":34962},{"buffer":0,"byteOffset":294192,"byteLength":93120,"target":34963},{"buffer":0,"byteOffset":387312,"byteLength":47052,"target":34962},{"buffer":0,"byteOffset":434364,"byteLength":47052,"target":34962},{"buffer":0,"byteOffset":481416,"byteLength":6144,"target":34963},{"buffer":0,"byteOffset":487560,"byteLength":3816,"target":34962},{"buffer":0,"byteOffset":491376,"byteLength":3816,"target":34962},{"buffer":0,"byteOffset":495192,"byteLength":2544,"target":34962},{"buffer":0,"byteOffset":497736,"byteLength":2544,"target":34962},{"buffer":0,"byteOffset":500280,"byteLength":2688,"target":34963},{"buffer":0,"byteOffset":502968,"byteLength":1632,"target":34962},{"buffer":0,"byteOffset":504600,"byteLength":1632,"target":34962},{"buffer":0,"byteOffset":506232,"byteLength":1088,"target":34962},{"buffer":0,"byteOffset":507320,"byteLength":262656,"target":34963},{"buffer":0,"byteOffset":769976,"byteLength":131424,"target":34962},{"buffer":0,"byteOffset":901400,"byteLength":131424,"target":34962},{"buffer":0,"byteOffset":1032824,"byteLength":87616,"target":34962},{"buffer":0,"byteOffset":1120440,"byteLength":165888,"target":34963},{"buffer":0,"byteOffset":1286328,"byteLength":84876,"target":34962},{"buffer":0,"byteOffset":1371204,"byteLength":84876,"target":34962},{"buffer":0,"byteOffset":1456080,"byteLength":56584,"target":34962},{"buffer":0,"byteOffset":1512664,"byteLength":53952,"target":34963},{"buffer":0,"byteOffset":1566616,"byteLength":31272,"target":34962},{"buffer":0,"byteOffset":1597888,"byteLength":31272,"target":34962},{"buffer":0,"byteOffset":1629160,"byteLength":20848,"target":34962},{"buffer":0,"byteOffset":1650008,"byteLength":20848,"target":34962},{"buffer":0,"byteOffset":1670856,"byteLength":20544,"target":34963},{"buffer":0,"byteOffset":1691400,"byteLength":10296,"target":34962},{"buffer":0,"byteOffset":1701696,"byteLength":10296,"target":34962},{"buffer":0,"byteOffset":1711992,"byteLength":2304,"target":34963},{"buffer":0,"byteOffset":1714296,"byteLength":1176,"target":34962},{"buffer":0,"byteOffset":1715472,"byteLength":1176,"target":34962},{"buffer":0,"byteOffset":1716648,"byteLength":6528,"target":34963},{"buffer":0,"byteOffset":1723176,"byteLength":3288,"target":34962},{"buffer":0,"byteOffset":1726464,"byteLength":3288,"target":34962}],"textures":[{"sampler":0,"source":0},{"sampler":0,"source":1},{"sampler":0,"source":2},{"sampler":0,"source":3},{"sampler":0,"source":4},{"sampler":0,"source":5},{"sampler":0,"source":6},{"sampler":0,"source":7},{"sampler":0,"source":8},{"sampler":0,"source":9}],"images":[{"uri":"gradient62.jpg","mimeType":"image/jpeg"},{"uri":"texture.jpg","mimeType":"image/jpeg"},{"uri":"metallicTexture&texture_2.jpg","mimeType":"image/jpeg"},{"uri":"texture_1.jpg","mimeType":"image/jpeg"},{"uri":"texture_9.jpg","mimeType":"image/jpeg"},{"uri":"texture_10.jpg","mimeType":"image/jpeg"},{"uri":"metallicTexture&texture_11.jpg","mimeType":"image/jpeg"},{"uri":"texture_3.jpg","mimeType":"image/jpeg"},{"uri":"metallicTexture&texture_5.jpg","mimeType":"image/jpeg"},{"uri":"texture_4.jpg","mimeType":"image/jpeg"}],"samplers":[{"wrapS":10497,"wrapT":10497}],"cameras":[{"name":"Camera","type":"perspective","extras":{"targetDistance":0.10441713307118158},"perspective":{"aspectRatio":1.3082133784928027,"yfov":0.6108652381980153,"zfar":23.93024408111301,"znear":0.0014033671556931775}}],"scene":0,"scenes":[{"nodes":[0,15],"name":"Char_one"}],"extensionsUsed":["KHR_texture_transform"],"buffers":[{"byteLength":1729752,"uri":"Char.bin"}]}