<?xml version="1.0" encoding="utf-8"?>
<!-- Generator: Adobe Illustrator 22.0.1, SVG Export Plug-In . SVG Version: 6.00 Build 0)  -->
<svg version="1.1" id="US_logo" xmlns="http://www.w3.org/2000/svg" xmlns:xlink="http://www.w3.org/1999/xlink" x="0px" y="0px"
	 viewBox="0 0 198.3 173.7" style="enable-background:new 0 0 198.3 173.7;" xml:space="preserve">
<style type="text/css">
	.st0{fill:#A61B2F;}
	.st1{fill:none;}
	.st2{fill:#727273;}
	.st3{font-family:'Roboto-Bold';}
	.st4{font-size:10px;}
</style>
<g>
	<g>
		<path class="st0" d="M42.8,128.8c0,0-7.8,9.2-6.8,12.7c1,3.6,3.7,4.8,3.7,4.8l5.2,0.7l8.3,2.1c0,0,14.9,2.1,14.4-1.6
			c-0.5-3.7,14.7-21,16.3-24.1c1.8-3.3,24.7-26.9,24.7-26.9l15-14.5l13.6-10.8l-1-0.5l22.7-18.4c7.8-5.7,26.7-17.5,26.2-18.2
			c-0.8-1-0.6-0.4-2.4-0.2c-2.6,0.3-7.1,1.6-7.3,1.7c-0.9,0.5,1-0.4,1-0.4l-1.5-2.4l-6.8,1.8c0,0,1.1-1.4,1.5-3.2
			c0.3-1.5-1.8-0.9-1.7-1.8c0.2-1.8-4.9-0.5-4.9-0.5s2.5-2.5,0.4-3c-1.3-0.3-0.1-2-7.8,2.5c-1.3,0.8-7.1,4.5-7.7,4.9
			c-1.6,1-12.9,11-14.8,10.1c-0.6-0.3-6.7,5.5-6.7,5.5l-16,13.1L85.1,84.1c0,0-9.1,8.4-14.7,13.7C68.6,99.6,54,115.4,54,115.4
			L42.8,128.8z"/>
		<path class="st0" d="M24.5,29.4c0,0,5.9,9.6,7.6,13.9c2.7,6.6,5.1,13.9,6.7,17.9c8.5,21.4,1.7,37.9,8.2,39.7
			c3.3,0.9,11.8-3.8,12-5.7c0.1-1.8,8.3-8.4,10.3-9.9c2-1.5,2.8-3.7,1.6-6.7c-5.7-14.7-11.3-32.9-15.4-37.9L54.9,42
			c0,0-7.8-12.9-12.6-18.2c-2.1-2.3-4,1.7-4,1.7l-4.2-1.5L32,25.8l-4.3-0.6L24.5,29.4z"/>
		<path class="st0" d="M70,44.7c0,0,2.4,13.4,2.8,14.1c1.8,3.3,4.4,7.8,8.4,10.9c2.2,1.6,9.6-5.9,10.7-7.2c1.3-1.4,9.7-3.6,11.3-5.1
			c1.5-1.5,1-4.4-0.4-7.6c-1.4-3.2-5.6-9.8-6.8-13.8c-1.2-4-7.1-2.9-7.5-1.7c-0.3,1.2-5.1,1.5-5.1,1.5l-4.2,3.9l-9.5,3.9L70,44.7z"
			/>
	</g>
	<rect x="67.4" y="139.6" class="st1" width="93.2" height="10"/>
	<text transform="matrix(1 0 0 1 79.7718 147.1222)" class="st2 st3 st4">Unofficial Logo</text>
</g>
</svg>
