<svg id="Layer_1" data-name="Layer 1" xmlns="http://www.w3.org/2000/svg" viewBox="0 0 200 200"><defs><style>.cls-1{fill:#222;stroke:#222;stroke-miterlimit:10;stroke-width:6px;}</style></defs><title>animation</title><path class="cls-1" d="M49.28,182.5A11.36,11.36,0,0,1,43.65,181,12.12,12.12,0,0,1,37,170V30a12.48,12.48,0,0,1,19.2-10.43L156.76,84.83A13.7,13.7,0,0,1,163,96.1a13.5,13.5,0,0,1-5.63,11.48L56.59,180.2A11.31,11.31,0,0,1,49.28,182.5Zm0-158.18a6.43,6.43,0,0,0-2.71.63,5.54,5.54,0,0,0-2.92,4.8V170a5.7,5.7,0,0,0,9,4.59l100.59-72.41a7.31,7.31,0,0,0,2.92-5.84A7.53,7.53,0,0,0,153,90.47L52.41,25.15A5.89,5.89,0,0,0,49.28,24.32Z"/></svg>