<?xml version="1.0" encoding="utf-8"?>
<!-- Generator: Adobe Illustrator 22.0.1, SVG Export Plug-In . SVG Version: 6.00 Build 0)  -->
<svg version="1.1" id="Layer_1" xmlns="http://www.w3.org/2000/svg" xmlns:xlink="http://www.w3.org/1999/xlink" x="0px" y="0px"
	 viewBox="0 0 206.4 56.7" style="enable-background:new 0 0 206.4 56.7;" xml:space="preserve">
<style type="text/css">
	.st0{fill:url(#SVGID_1_);}
	.st1{enable-background:new    ;}
	.st2{fill:#222222;}
	.st3{fill:#FFFFFF;}
</style>
<g>
	
		<linearGradient id="SVGID_1_" gradientUnits="userSpaceOnUse" x1="2.9125" y1="4.2" x2="53.85" y2="55.1375" gradientTransform="matrix(1 0 0 -1 0 58)">
		<stop  offset="0" style="stop-color:#452EB3"/>
		<stop  offset="1" style="stop-color:#AC60D0"/>
	</linearGradient>
	<path class="st0" d="M46.9,56.7h-37c-5.4,0-9.9-4.4-9.9-9.9v-37C0,4.4,4.4,0,9.9,0h37c5.4,0,9.9,4.4,9.9,9.9v37
		C56.7,52.3,52.3,56.7,46.9,56.7z"/>
	<g class="st1">
		<path class="st2" d="M81.9,27.4v7c-1.4,0.2-2.7,0.3-3.9,0.3c-3,0-5.3-0.6-6.7-1.9c-1.5-1.2-2.2-3.1-2.2-5.6c0-2.5,0.8-4.4,2.3-5.7
			s3.7-1.9,6.7-1.9c1.2,0,2.4,0.1,3.5,0.4v2.8c-1-0.2-2.1-0.4-3.2-0.4c-1.3,0-2.4,0.2-3.2,0.5c-0.8,0.3-1.4,0.9-1.8,1.6
			c-0.4,0.7-0.6,1.7-0.6,2.8c0,1.6,0.4,2.8,1.3,3.5S76,32,77.7,32c0.3,0,0.6,0,1,0v-4.6H81.9z"/>
		<path class="st2" d="M84.6,23.6h2.7l0.3,1.4h0.2c0.3-0.5,0.7-0.9,1.3-1.1c0.5-0.3,1.1-0.4,1.8-0.4c0.3,0,0.6,0,0.9,0.1v3
			c-0.3-0.1-0.7-0.1-1.1-0.1c-0.5,0-1,0.1-1.5,0.3c-0.5,0.2-0.9,0.4-1.2,0.8v7.1h-3.3V23.6z"/>
		<path class="st2" d="M100,23.9c0.8,0.3,1.4,0.8,1.7,1.5c0.4,0.7,0.6,1.6,0.6,2.8v6.3h-2.8l-0.2-1h-0.1c-0.4,0.4-0.8,0.7-1.3,0.9
			c-0.5,0.2-1.1,0.3-1.8,0.3c-0.8,0-1.5-0.1-2.1-0.4s-1-0.6-1.3-1.1c-0.3-0.5-0.4-1-0.4-1.7c0-1,0.4-1.8,1.2-2.4
			c0.8-0.6,2-0.9,3.7-1l2-0.1v0c0-0.5-0.1-0.9-0.3-1.2s-0.5-0.5-0.9-0.6c-0.4-0.1-0.9-0.2-1.6-0.2c-0.5,0-1,0-1.6,0.1
			s-1.1,0.2-1.6,0.3v-2.4c0.6-0.2,1.2-0.3,1.8-0.4c0.7-0.1,1.3-0.1,1.9-0.1C98.1,23.5,99.2,23.6,100,23.9z M98.1,32.4
			c0.3-0.1,0.6-0.3,0.9-0.5v-2L97.3,30c-0.6,0.1-1.1,0.2-1.4,0.4c-0.3,0.2-0.4,0.5-0.4,0.9c0,0.4,0.1,0.7,0.4,0.9
			c0.3,0.2,0.7,0.3,1.2,0.3C97.4,32.5,97.7,32.5,98.1,32.4z"/>
		<path class="st2" d="M104.7,23.6h2.7l0.2,1.1h0.1c0.4-0.4,0.9-0.7,1.5-0.9s1.2-0.3,1.9-0.3c1.3,0,2.3,0.4,3,1.1s1.1,1.9,1.1,3.4
			v6.6H112v-6.4c0-0.7-0.1-1.2-0.4-1.5c-0.3-0.3-0.7-0.4-1.3-0.4c-0.4,0-0.8,0.1-1.2,0.2s-0.7,0.4-1,0.7v7.3h-3.3V23.6z"/>
		<path class="st2" d="M125.1,31.9v2.6c-0.3,0.1-0.7,0.1-1,0.2c-0.4,0-0.7,0.1-1.1,0.1c-2.9,0-4.3-1.4-4.3-4.1v-4.4h-1.9v-2.6h1.9
			l0.6-3.9h2.7v3.9h3v2.6h-3v3.8c0,0.5,0.1,0.9,0.2,1.2s0.3,0.5,0.6,0.6s0.6,0.2,1.1,0.2C124.2,32.1,124.6,32,125.1,31.9z"/>
		<path class="st2" d="M131.9,27.2c0-1.6,0.3-3,1-4.2c0.6-1.1,1.6-2,2.9-2.6s2.8-0.9,4.6-0.9c1.2,0,2.3,0.1,3.4,0.4v2.8
			c-1-0.2-2-0.3-3.1-0.3c-1.8,0-3.1,0.4-3.9,1.2c-0.8,0.8-1.2,2-1.2,3.6c0,1.7,0.4,2.9,1.2,3.7c0.8,0.8,2.1,1.1,3.8,1.1
			c1.1,0,2.2-0.2,3.3-0.5v2.8c-1.1,0.3-2.2,0.5-3.5,0.5C134.6,34.8,131.9,32.2,131.9,27.2z"/>
		<path class="st2" d="M147.3,34.1c-0.9-0.4-1.5-1.1-2-1.9c-0.5-0.8-0.7-1.9-0.7-3.1c0-1.2,0.2-2.3,0.7-3.1c0.5-0.8,1.1-1.5,2-1.9
			s1.9-0.6,3.1-0.6c1.2,0,2.2,0.2,3.1,0.6s1.5,1.1,2,1.9c0.5,0.8,0.7,1.9,0.7,3.1c0,1.2-0.2,2.2-0.7,3.1c-0.5,0.9-1.1,1.5-2,1.9
			c-0.9,0.4-1.9,0.7-3,0.7C149.1,34.8,148.1,34.6,147.3,34.1z M152.1,31.5c0.4-0.5,0.6-1.3,0.6-2.4c0-1.1-0.2-1.9-0.6-2.4
			s-1-0.7-1.8-0.7c-0.8,0-1.4,0.2-1.8,0.7c-0.4,0.5-0.6,1.3-0.6,2.4c0,1.1,0.2,1.9,0.6,2.4c0.4,0.5,1,0.7,1.8,0.7
			C151.1,32.2,151.7,32,152.1,31.5z"/>
		<path class="st2" d="M159.1,33.7c-0.7-0.7-1.1-1.9-1.1-3.4v-6.6h3.3V30c0,0.7,0.1,1.2,0.4,1.5c0.3,0.3,0.7,0.4,1.2,0.4
			c0.4,0,0.8-0.1,1.2-0.2c0.4-0.2,0.7-0.4,1-0.7v-7.4h3.3v10.9h-2.7l-0.2-1.1h-0.1c-0.4,0.4-1,0.7-1.5,0.9c-0.6,0.2-1.2,0.3-1.8,0.3
			C160.9,34.7,159.8,34.4,159.1,33.7z"/>
		<path class="st2" d="M171.1,23.6h2.7l0.2,1.1h0.2c0.4-0.4,0.9-0.7,1.5-0.9c0.6-0.2,1.2-0.3,1.9-0.3c1.3,0,2.3,0.4,3,1.1
			c0.7,0.7,1.1,1.9,1.1,3.4v6.6h-3.3v-6.4c0-0.7-0.1-1.2-0.4-1.5c-0.3-0.3-0.7-0.4-1.3-0.4c-0.4,0-0.8,0.1-1.2,0.2s-0.7,0.4-1,0.7
			v7.3h-3.3V23.6z"/>
		<path class="st2" d="M191.5,31.9v2.6c-0.3,0.1-0.7,0.1-1.1,0.2c-0.4,0-0.7,0.1-1.1,0.1c-2.9,0-4.3-1.4-4.3-4.1v-4.4h-1.9v-2.6h1.9
			l0.6-3.9h2.7v3.9h3v2.6h-3v3.8c0,0.5,0.1,0.9,0.2,1.2s0.3,0.5,0.6,0.6s0.6,0.2,1.1,0.2C190.6,32.1,191,32,191.5,31.9z"/>
		<path class="st2" d="M200.4,23.6h3.3l-6,15.3h-3.3l1.7-4.4h-0.8l-4.2-10.9h3.5l2.9,8.1L200.4,23.6z"/>
	</g>
	<g>
		<path class="st3" d="M10.8,36.7V20.3c0.8-0.2,1.8-0.3,2.8-0.4c1.1-0.1,2.1-0.2,3-0.2c3.3,0,5.8,0.7,7.5,2.1s2.5,3.6,2.5,6.5
			c0,2-0.4,3.7-1.2,5c-0.8,1.3-2,2.2-3.6,2.8S18.2,37,15.7,37C14.1,37,12.4,36.9,10.8,36.7z M20.1,33.3c0.9-0.4,1.5-1,1.9-1.8
			s0.6-1.9,0.6-3.2c0-1.9-0.5-3.3-1.4-4.2c-0.9-0.9-2.4-1.3-4.4-1.3c-0.6,0-1.3,0.1-2.1,0.2v10.8c0.5,0.1,1.2,0.1,2.1,0.1
			C18.1,33.9,19.2,33.7,20.1,33.3z"/>
		<path class="st3" d="M32.7,36.1c-1.3-0.7-2.3-1.6-3-3c-0.7-1.3-1-2.9-1-4.8s0.3-3.5,1-4.8s1.7-2.3,3-2.9c1.3-0.7,2.8-1,4.6-1
			s3.3,0.3,4.6,1s2.3,1.6,3,3c0.7,1.3,1,2.9,1,4.8c0,1.9-0.3,3.5-1,4.8s-1.7,2.3-3,3s-2.8,1-4.6,1C35.6,37.1,34,36.8,32.7,36.1z
			 M40.7,32.6c0.8-0.9,1.2-2.3,1.2-4.2c0-1.9-0.4-3.4-1.2-4.3s-1.9-1.4-3.4-1.4s-2.6,0.5-3.4,1.4c-0.8,0.9-1.2,2.3-1.2,4.2
			c0,2,0.4,3.4,1.2,4.3c0.8,0.9,1.9,1.4,3.4,1.4S40,33.5,40.7,32.6z"/>
	</g>
</g>
</svg>
