{"asset":{"version":"2.0","generator":"VECTARY"},"nodes":[{"translation":[-0.09969146172430002,0,0],"scale":[0.001870998188259987,0.001870998188259987,0.001870998188259987],"rotation":[-0.7071067811865475,0,0,0.7071067811865476],"name":"3D Text - F","mesh":0},{"translation":[-0.04976387507058225,0,0],"scale":[0.001870998188259987,0.001870998188259987,0.001870998188259987],"rotation":[-0.7071067811865475,0,0,0.7071067811865476],"name":"3D Text - a","mesh":1},{"translation":[-0.0014359918678267852,0,0],"scale":[0.001870998188259987,0.001870998188259987,0.001870998188259987],"rotation":[-0.7071067811865475,0,0,0.7071067811865476],"name":"3D Text - v","mesh":2},{"translation":[0.042345365737456925,0,0],"scale":[0.001870998188259987,0.001870998188259987,0.001870998188259987],"rotation":[-0.7071067811865475,0,0,0.7071067811865476],"name":"3D Text - e","mesh":3},{"translation":[-0.25353416224425274,0.4457650310991723,0.32288761362031265],"scale":[1,1,1],"rotation":[-0.38406658770518715,-0.2288390373922125,-0.09886131044072519,0.8890174309156386],"name":"Camera","camera":0}],"materials":[{"pbrMetallicRoughness":{"baseColorFactor":[0,0,0,1],"metallicFactor":0,"roughnessFactor":0.2},"name":"3D Text material","emissiveFactor":[0,0,0],"alphaMode":"OPAQUE","doubleSided":false}],"meshes":[{"primitives":[{"mode":4,"attributes":{"POSITION":1,"NORMAL":2},"material":0,"indices":0}]},{"primitives":[{"mode":4,"attributes":{"POSITION":4,"NORMAL":5},"material":0,"indices":3}]},{"primitives":[{"mode":4,"attributes":{"POSITION":7,"NORMAL":8},"material":0,"indices":6}]},{"primitives":[{"mode":4,"attributes":{"POSITION":10,"NORMAL":11},"material":0,"indices":9}]}],"accessors":[{"bufferView":0,"byteOffset":0,"componentType":5125,"count":108,"type":"SCALAR"},{"bufferView":1,"byteOffset":0,"componentType":5126,"count":70,"max":[28.549999237060547,2.185994678186639e-15,35.70000076293945],"min":[3.450000047683716,-15,0],"type":"VEC3"},{"bufferView":2,"byteOffset":0,"componentType":5126,"count":70,"type":"VEC3"},{"bufferView":3,"byteOffset":0,"componentType":5125,"count":828,"type":"SCALAR"},{"bufferView":4,"byteOffset":0,"componentType":5126,"count":556,"max":[26.799999237060547,1.6257185942364144e-15,26.549999237060547],"min":[1.600000023841858,-15,-0.699999988079071],"type":"VEC3"},{"bufferView":5,"byteOffset":0,"componentType":5126,"count":556,"type":"VEC3"},{"bufferView":6,"byteOffset":0,"componentType":5125,"count":84,"type":"SCALAR"},{"bufferView":7,"byteOffset":0,"componentType":5126,"count":58,"max":[25.75,1.5828559742482682e-15,25.850000381469727],"min":[0.25,-15,0],"type":"VEC3"},{"bufferView":8,"byteOffset":0,"componentType":5126,"count":58,"type":"VEC3"},{"bufferView":9,"byteOffset":0,"componentType":5125,"count":516,"type":"SCALAR"},{"bufferView":10,"byteOffset":0,"componentType":5126,"count":342,"max":[27.200000762939453,1.6257185942364144e-15,26.549999237060547],"min":[1.4500000476837158,-15,-0.699999988079071],"type":"VEC3"},{"bufferView":11,"byteOffset":0,"componentType":5126,"count":342,"type":"VEC3"}],"bufferViews":[{"buffer":0,"byteOffset":0,"byteLength":432,"target":34963},{"buffer":0,"byteOffset":432,"byteLength":840,"target":34962},{"buffer":0,"byteOffset":1272,"byteLength":840,"target":34962},{"buffer":0,"byteOffset":2112,"byteLength":3312,"target":34963},{"buffer":0,"byteOffset":5424,"byteLength":6672,"target":34962},{"buffer":0,"byteOffset":12096,"byteLength":6672,"target":34962},{"buffer":0,"byteOffset":18768,"byteLength":336,"target":34963},{"buffer":0,"byteOffset":19104,"byteLength":696,"target":34962},{"buffer":0,"byteOffset":19800,"byteLength":696,"target":34962},{"buffer":0,"byteOffset":20496,"byteLength":2064,"target":34963},{"buffer":0,"byteOffset":22560,"byteLength":4104,"target":34962},{"buffer":0,"byteOffset":26664,"byteLength":4104,"target":34962}],"cameras":[{"name":"Camera","type":"perspective","extras":{"targetDistance":0.6631622928464685},"perspective":{"aspectRatio":1.7442845046570703,"yfov":0.6108652381980153,"zfar":45.16468359652546,"znear":0.0035826912112223493}}],"scene":0,"scenes":[{"nodes":[0,1,2,3,4],"name":"Fave"}],"extensionsUsed":["KHR_texture_transform"],"buffers":[{"byteLength":30768,"uri":"Fave.bin"}]}