{"asset":{"version":"2.0","generator":"VECTARY"},"nodes":[{"translation":[-0.1005573048785501,5.3290705182007515e-18,-0.0318201202870332],"scale":[0.001,0.001,0.001],"rotation":[-0.7071067811865475,0,0,0.7071067811865476],"name":"Tree 2","children":[1,2]},{"translation":[-1.6665000915527348,7.613000869750978,0.0010000000474974513],"scale":[1,1,1],"rotation":[0,0,0,1],"name":"Tree","mesh":0},{"translation":[-1.6665000915527348,7.613000869750978,0.0010000000474974513],"scale":[1,1,1],"rotation":[0,0,0,1],"name":"Trunk","mesh":1},{"translation":[-0.2070873711438727,0.037896391159722216,0.6822570514474651],"scale":[1,1,1],"rotation":[-0.026259777597009676,-0.14676300504404197,-0.003897556565454402,0.9888153788669639],"name":"Camera","camera":0}],"materials":[{"pbrMetallicRoughness":{"baseColorFactor":[0.04455262731642138,0.04614884242235095,0.08021925873621505,1],"metallicFactor":0,"roughnessFactor":1},"name":"Material 2","emissiveFactor":[0,0,0],"alphaMode":"OPAQUE","doubleSided":false},{"pbrMetallicRoughness":{"baseColorFactor":[0.04777575355617064,0.6253447208024265,0.20109572962134564,1],"metallicFactor":0,"roughnessFactor":1},"name":"Material 4","emissiveFactor":[0,0,0],"alphaMode":"OPAQUE","doubleSided":false}],"meshes":[{"primitives":[{"mode":4,"attributes":{"POSITION":1,"NORMAL":2},"material":0,"indices":0}]},{"primitives":[{"mode":4,"attributes":{"POSITION":4,"NORMAL":5},"material":1,"indices":3}]}],"accessors":[{"bufferView":0,"byteOffset":0,"componentType":5125,"count":210,"type":"SCALAR"},{"bufferView":1,"byteOffset":0,"componentType":5126,"count":133,"max":[32.867000579833984,19.753999710083008,142.2790069580078],"min":[-13.512999534606934,-15.428000450134277,-0.0010000000474974513],"type":"VEC3"},{"bufferView":2,"byteOffset":0,"componentType":5126,"count":133,"type":"VEC3"},{"bufferView":3,"byteOffset":0,"componentType":5125,"count":516,"type":"SCALAR"},{"bufferView":4,"byteOffset":0,"componentType":5126,"count":477,"max":[106.9729995727539,60.52199935913086,238.29299926757812],"min":[-103.63999938964844,-75.74800109863281,87.00700378417969],"type":"VEC3"},{"bufferView":5,"byteOffset":0,"componentType":5126,"count":477,"type":"VEC3"}],"bufferViews":[{"buffer":0,"byteOffset":0,"byteLength":840,"target":34963},{"buffer":0,"byteOffset":840,"byteLength":1596,"target":34962},{"buffer":0,"byteOffset":2436,"byteLength":1596,"target":34962},{"buffer":0,"byteOffset":4032,"byteLength":2064,"target":34963},{"buffer":0,"byteOffset":6096,"byteLength":5724,"target":34962},{"buffer":0,"byteOffset":11820,"byteLength":5724,"target":34962}],"cameras":[{"name":"Camera","type":"perspective","extras":{"targetDistance":0.714},"perspective":{"aspectRatio":1.7442845046570703,"yfov":0.6108652381980153,"zfar":47.0967096709671,"znear":0.003780978097809781}}],"scene":0,"scenes":[{"nodes":[0,3],"name":"Tree1"}],"extensionsUsed":["KHR_texture_transform"],"buffers":[{"byteLength":17544,"uri":"Tree1.bin"}]}