{"asset":{"version":"2.0","generator":"VECTARY"},"nodes":[{"translation":[0,0,0],"scale":[0.0026695271871802514,0.0026695271871802514,0.0026695271871802514],"rotation":[-0.7071067811865475,0,0,0.7071067811865476],"name":"Tree","children":[1,2]},{"translation":[0.37650012969970703,-0.1724996566772461,-0.003000000026077032],"scale":[1,1,1],"rotation":[0,0,0,1],"name":"Trunk","mesh":0},{"translation":[0.37650012969970703,-0.1724996566772461,-0.003000000026077032],"scale":[1,1,1],"rotation":[0,0,0,1],"name":"Crown","mesh":1},{"translation":[-1.2504793764248001,0.3272828563891612,0.6423542665862834],"scale":[1,1,1],"rotation":[-0.1318750182606146,-0.467494365383857,-0.07076255948839635,0.8712351336279767],"name":"Camera","camera":0}],"materials":[{"pbrMetallicRoughness":{"baseColorFactor":[0.04455262731642138,0.04614884242235095,0.08021925873621505,1],"metallicFactor":0,"roughnessFactor":0.2},"name":"Material 3","emissiveFactor":[0,0,0],"alphaMode":"OPAQUE","doubleSided":false},{"pbrMetallicRoughness":{"baseColorFactor":[0.04777575355617064,0.6253447208024265,0.20109572962134564,1],"metallicFactor":0,"roughnessFactor":0.2},"name":"Material 4","emissiveFactor":[0,0,0],"alphaMode":"OPAQUE","doubleSided":false}],"meshes":[{"primitives":[{"mode":4,"attributes":{"POSITION":1,"NORMAL":2},"material":0,"indices":0}]},{"primitives":[{"mode":4,"attributes":{"POSITION":4,"NORMAL":5},"material":1,"indices":3}]}],"accessors":[{"bufferView":0,"byteOffset":0,"componentType":5125,"count":126,"type":"SCALAR"},{"bufferView":1,"byteOffset":0,"componentType":5126,"count":60,"max":[3.9279279708862305,4.441854953765869,23.804000854492188],"min":[-2.1710000038146973,-1.2869999408721924,0.003000000026077032],"type":"VEC3"},{"bufferView":2,"byteOffset":0,"componentType":5126,"count":60,"type":"VEC3"},{"bufferView":3,"byteOffset":0,"componentType":5125,"count":210,"type":"SCALAR"},{"bufferView":4,"byteOffset":0,"componentType":5126,"count":172,"max":[13.512999534606934,15.965999603271484,46.96900177001953],"min":[-14.265999794006348,-15.621000289916992,22.06800079345703],"type":"VEC3"},{"bufferView":5,"byteOffset":0,"componentType":5126,"count":172,"type":"VEC3"}],"bufferViews":[{"buffer":0,"byteOffset":0,"byteLength":504,"target":34963},{"buffer":0,"byteOffset":504,"byteLength":720,"target":34962},{"buffer":0,"byteOffset":1224,"byteLength":720,"target":34962},{"buffer":0,"byteOffset":1944,"byteLength":840,"target":34963},{"buffer":0,"byteOffset":2784,"byteLength":2064,"target":34962},{"buffer":0,"byteOffset":4848,"byteLength":2064,"target":34962}],"cameras":[{"name":"Camera","type":"perspective","extras":{"targetDistance":1.5880092082474317},"perspective":{"aspectRatio":1.2479806138933764,"yfov":0.6108652381980153,"zfar":80.31238115151757,"znear":0.00718995490765575}}],"scene":0,"scenes":[{"nodes":[0,3],"name":"Tree2"}],"extensionsUsed":["KHR_texture_transform"],"buffers":[{"byteLength":6912,"uri":"Tree2.bin"}]}