<svg xmlns="http://www.w3.org/2000/svg" viewBox="0 0 100 100" xml:space="preserve"><path d="M57.616 79.955c0 4.411 3.589 8 8 8H82.04c4.41 0 8-3.589 8-8v-36.11c0-4.411-3.59-8-8-8h-2.065V24.158c0-4.41-3.589-8-8-8H21.708c-4.411 0-8 3.59-8 8v35.465h-2.2a3.001 3.001 0 0 0-2.998 2.998c0 6.163 5.014 11.177 11.177 11.177h37.929v6.157zm28.424-3.212H61.616V47.14H86.04v29.603zm-4 7.212H65.616c-2.206 0-4-1.794-4-4v-1.212H86.04v1.212c0 2.206-1.795 4-4 4zm4-40.11v1.295H61.616v-1.295c0-2.206 1.794-4 4-4H82.04c2.205 0 4 1.794 4 4zM17.708 24.158c0-2.206 1.794-4 4-4h50.267c2.206 0 4 1.794 4 4v11.687h-10.36c-4.41 0-8 3.589-8 8v15.778H17.709V24.158zm1.98 45.64c-3.619 0-6.62-2.69-7.108-6.175h45.036v6.175H19.687z"/></svg>