<svg fill="none" height="25" viewBox="0 0 65 25" width="65" xmlns="http://www.w3.org/2000/svg"><g fill="#fff"><path d="m16.9 0v4.29231h-11.64538v5.4h10.01218v4.01539h-10.01218v9.6923h-5.25462v-23.4z"/><path clip-rule="evenodd" d="m16.9491 8.8128c-.497.70542-.7811 1.6225-.8521 2.7512v.141h4.7576c.071-.917.426-1.5519.9231-1.97515s1.2782-.63488 2.2013-.63488c.426 0 .8521 0 1.2071.07054.3551.07054.7101.21163.9941.35271.2131.14109.4971.42326.6391.70538.213.2822.284.7055.284 1.1993s-.142.8465-.426 1.1287c-.284.2116-.7101.4232-1.2782.5643-.568.1411-1.1361.2116-1.8462.2822-.7101.0705-1.4202.1411-2.1302.2821-.7101.0706-1.4202.2117-2.1303.4233-.6391.2116-1.2781.4938-1.8462.8465-.5681.4233-.9941.9171-1.3492 1.5519-.355.6349-.497 1.4109-.497 2.3985 0 .917.142 1.693.426 2.3279.3551.6349.7101 1.1992 1.2782 1.6225.497.4232 1.1361.7054 1.8462.917.7101.2117 1.4912.2822 2.3433.2822 1.0651 0 2.0592-.2116 3.1243-.4938 1.0652-.2822 1.9173-.8465 2.6984-1.6225.0355.1411.0532.2822.071.4233.0177.1411.0355.2822.071.4232l.213.8466h4.8286c-.2841-.3528-.4261-.9171-.4971-1.6225-.071-.7055-.142-1.4814-.142-2.2574v-8.9589c0-1.05815-.213-1.90466-.7101-2.53954-.497-.63489-1.1361-1.12869-1.8462-1.4814-.7811-.35271-1.5622-.56434-2.4853-.70543-.8521-.14108-1.7752-.21162-2.6273-.21162-.9231 0-1.9172.07054-2.8403.28217-.9232.14108-1.8463.4938-2.5563.91705-.7101.42326-1.3492 1.05814-1.8463 1.76357zm10.0833 6.3437c.0237-.0203.0474-.042.071-.0654h-.071zm0 0c-.1708.1455-.3515.2166-.6135.3197-.031.0122-.0632.0249-.0966.0381-.3551.1411-.6391.2117-.9942.2822-.355.0705-.71.1411-1.0651.1411-.1775.0353-.3728.0529-.568.0705-.1953.0177-.3906.0353-.5681.0706-.3551.0705-.7101.1411-1.0651.2821-.3551.1411-.6391.2822-.9231.4233-.2841.2116-.4971.4233-.6391.7054-.142.2822-.213.6349-.213 1.1287 0 .4233.071.776.213 1.0581.142.2822.355.4938.6391.7055.284.1411.568.2821.9231.3527.355.0705.71.0705 1.1361.0705.9231 0 1.6332-.1411 2.2013-.4938.497-.2821.9231-.7054 1.1361-1.1286.213-.4233.426-.8466.426-1.3404.0711-.4232.0711-.7759.0711-1.0581z" fill-rule="evenodd"/><path d="m37.7161 23.4-5.8661-16.9h4.8884l3.6314 11.5196h.0698l3.6314-11.5196h4.679l-5.7963 16.9z"/><path clip-rule="evenodd" d="m56.9202 20.5092c-1.3093 0-2.3429-.3541-3.032-1.0623-.689-.7082-1.0336-1.8413-1.0336-3.3992h12.1278c.0689-1.3456-.0689-2.6203-.3445-3.8242-.3446-1.2038-.8269-2.2661-1.516-3.25754-.6891-.92062-1.5849-1.69961-2.6185-2.26615s-2.274-.8498-3.721-.8498c-1.3093 0-2.4807.21245-3.5143.70817-1.1026.4249-1.9984 1.06225-2.7563 1.91206-.758.84981-1.3782 1.77046-1.7917 2.90346-.4134 1.1331-.6201 2.337-.6201 3.6117 0 1.3455.2067 2.5494.6201 3.6825.4135 1.1331.9648 2.1245 1.7227 2.9035.6891.779 1.6538 1.4164 2.6875 1.8413 1.0336.4249 2.2739.6373 3.5832.6373 1.9294 0 3.5143-.4249 4.8924-1.3455 1.3782-.9206 2.4118-2.4078 3.032-4.4615h-4.0656c-.1378.5665-.5513 1.0623-1.2403 1.558-.6891.4957-1.4471.7082-2.4118.7082zm-.3445-11.11834c1.1714 0 1.9983.28327 2.5496.92064.5512.6373.9647 1.558 1.1025 2.691h-7.511c0-.3541.069-.7081.2068-1.133s.3445-.8498.6201-1.2039c.2757-.3541.6891-.6374 1.1715-.92065.4823-.21245 1.1025-.35409 1.8605-.35409z" fill-rule="evenodd"/></g></svg>